<?xml version="1.0" encoding="UTF-8" standalone="no"?>
<!-- Created with matplotlib (https://matplotlib.org/) -->

<svg
   xmlns:dc="http://purl.org/dc/elements/1.1/"
   xmlns:cc="http://creativecommons.org/ns#"
   xmlns:rdf="http://www.w3.org/1999/02/22-rdf-syntax-ns#"
   xmlns:svg="http://www.w3.org/2000/svg"
   xmlns="http://www.w3.org/2000/svg"
   xmlns:xlink="http://www.w3.org/1999/xlink"
   xmlns:sodipodi="http://sodipodi.sourceforge.net/DTD/sodipodi-0.dtd"
   xmlns:inkscape="http://www.inkscape.org/namespaces/inkscape"
   height="234.336014pt"
   version="1.1"
   viewBox="0 0 657.646551 234.336014"
   width="657.646551pt"
   id="svg510"
   sodipodi:docname="cycles.svg"
   inkscape:version="0.92.4 (5da689c313, 2019-01-14)">
  <metadata
     id="metadata514">
    <rdf:RDF>
      <cc:Work
         rdf:about="">
        <dc:format>image/svg+xml</dc:format>
        <dc:type
           rdf:resource="http://purl.org/dc/dcmitype/StillImage" />
        <dc:title></dc:title>
      </cc:Work>
    </rdf:RDF>
  </metadata>
  <sodipodi:namedview
     pagecolor="#ffffff"
     bordercolor="#666666"
     borderopacity="1"
     objecttolerance="10"
     gridtolerance="10"
     guidetolerance="10"
     inkscape:pageopacity="0"
     inkscape:pageshadow="2"
     inkscape:window-width="825"
     inkscape:window-height="480"
     id="namedview512"
     showgrid="false"
     inkscape:zoom="0.52615709"
     inkscape:cx="240.77143"
     inkscape:cy="156.22401"
     inkscape:window-x="0"
     inkscape:window-y="0"
     inkscape:window-maximized="0"
     inkscape:current-layer="svg510" />
  <defs
     id="defs4">
    <style
       type="text/css"
       id="style2">
*{stroke-linecap:butt;stroke-linejoin:round;}
  </style>
  </defs>
  <g
     id="figure_1">
    <g
       id="patch_1">
      <path
         d="M 0 234.336014  L 657.646551 234.336014  L 657.646551 0  L 0 0  z "
         style="fill:#ffffff;"
         id="path6" />
    </g>
    <g
       id="axes_1">
      <g
         id="patch_2">
        <path
           d="M 49.598278 191.340205  L 211.535517 191.340205  L 211.535517 51.799069  L 49.598278 51.799069  z "
           style="fill:#ffffff;"
           id="path9" />
      </g>
      <g
         id="matplotlib.axis_1">
        <g
           id="xtick_1">
          <g
             id="line2d_1">
            <defs
               id="defs13">
              <path
                 d="M 0 0  L 0 3.5  "
                 id="m1092b774ec"
                 style="stroke:#000000;stroke-width:0.8;" />
            </defs>
            <g
               id="g17">
              <use
                 style="stroke:#000000;stroke-width:0.8;"
                 x="56.959062"
                 xlink:href="#m1092b774ec"
                 y="191.340205"
                 id="use15" />
            </g>
          </g>
          <g
             id="text_1">
            <!-- $0.0$ -->
            <defs
               id="defs22">
              <path
                 d="M 42 31.84375  C 42 37.96875 41.90625 48.421875 37.703125 56.453125  C 34 63.484375 28.09375 66 22.90625 66  C 18.09375 66 12 63.78125 8.203125 56.5625  C 4.203125 49.015625 3.796875 39.671875 3.796875 31.84375  C 3.796875 26.109375 3.90625 17.375 7 9.734375  C 11.296875 -0.609375 19 -2 22.90625 -2  C 27.5 -2 34.5 -0.109375 38.59375 9.4375  C 41.59375 16.375 42 24.5 42 31.84375  z M 22.90625 -0.40625  C 16.5 -0.40625 12.703125 5.125 11.296875 12.75  C 10.203125 18.6875 10.203125 27.328125 10.203125 32.953125  C 10.203125 40.6875 10.203125 47.109375 11.5 53.234375  C 13.40625 61.78125 19 64.390625 22.90625 64.390625  C 27 64.390625 32.296875 61.671875 34.203125 53.4375  C 35.5 47.71875 35.59375 40.984375 35.59375 32.953125  C 35.59375 26.421875 35.59375 18.375 34.40625 12.453125  C 32.296875 1.5 26.40625 -0.40625 22.90625 -0.40625  z "
                 id="CMR17-48" />
              <path
                 d="M 18.40625 4.796875  C 18.40625 7.6875 16 9.6875 13.59375 9.6875  C 10.703125 9.6875 8.703125 7.296875 8.703125 4.890625  C 8.703125 2 11.09375 0 13.5 0  C 16.40625 0 18.40625 2.390625 18.40625 4.796875  z "
                 id="CMMI12-58" />
            </defs>
            <g
               transform="translate(48.233771 208.026081)scale(0.14 -0.14)"
               id="g30">
              <use
                 transform="scale(0.996264)"
                 xlink:href="#CMR17-48"
                 id="use24" />
              <use
                 transform="translate(45.690477 0)scale(0.996264)"
                 xlink:href="#CMMI12-58"
                 id="use26" />
              <use
                 transform="translate(72.787654 0)scale(0.996264)"
                 xlink:href="#CMR17-48"
                 id="use28" />
            </g>
          </g>
        </g>
        <g
           id="xtick_2">
          <g
             id="line2d_2">
            <g
               id="g36">
              <use
                 style="stroke:#000000;stroke-width:0.8;"
                 x="123.875276"
                 xlink:href="#m1092b774ec"
                 y="191.340205"
                 id="use34" />
            </g>
          </g>
          <g
             id="text_2">
            <!-- $0.5$ -->
            <defs
               id="defs40">
              <path
                 d="M 11.40625 58.59375  C 12.40625 58.1875 16.5 56.890625 20.703125 56.890625  C 30 56.890625 35.09375 61.890625 38 64.6875  C 38 65.484375 38 66 37.40625 66  C 37.296875 66 37.09375 66 36.296875 65.59375  C 32.796875 64.09375 28.703125 63 23.703125 63  C 20.703125 63 16.203125 63.359375 11.296875 65.484375  C 10.203125 66 10 66 9.90625 66  C 9.40625 66 9.296875 65.890625 9.296875 63.90625  L 9.296875 34.859375  C 9.296875 33.015625 9.296875 32.5 10.296875 32.5  C 10.796875 32.5 11 32.703125 11.5 33.421875  C 14.703125 38.046875 19.09375 40 24.09375 40  C 27.59375 40 35.09375 37.734375 35.09375 20.203125  C 35.09375 16.984375 35.09375 11.1875 32.09375 6.59375  C 29.59375 2.484375 25.703125 0.390625 21.40625 0.390625  C 14.796875 0.390625 8.09375 4.984375 6.296875 12.6875  C 6.703125 12.59375 7.5 12.390625 7.90625 12.390625  C 9.203125 12.390625 11.703125 13.09375 11.703125 16.1875  C 11.703125 18.890625 9.796875 20 7.90625 20  C 5.59375 20 4.09375 18.59375 4.09375 15.796875  C 4.09375 7.09375 11 -2 21.59375 -2  C 31.90625 -2 41.703125 6.890625 41.703125 19.796875  C 41.703125 32.09375 33.90625 41.59375 24.203125 41.59375  C 19.09375 41.59375 14.796875 39.6875 11.40625 36  z "
                 id="CMR17-53" />
            </defs>
            <g
               transform="translate(115.149985 208.026081)scale(0.14 -0.14)"
               id="g48">
              <use
                 transform="scale(0.996264)"
                 xlink:href="#CMR17-48"
                 id="use42" />
              <use
                 transform="translate(45.690477 0)scale(0.996264)"
                 xlink:href="#CMMI12-58"
                 id="use44" />
              <use
                 transform="translate(72.787654 0)scale(0.996264)"
                 xlink:href="#CMR17-53"
                 id="use46" />
            </g>
          </g>
        </g>
        <g
           id="xtick_3">
          <g
             id="line2d_3">
            <g
               id="g54">
              <use
                 style="stroke:#000000;stroke-width:0.8;"
                 x="190.791491"
                 xlink:href="#m1092b774ec"
                 y="191.340205"
                 id="use52" />
            </g>
          </g>
          <g
             id="text_3">
            <!-- $1.0$ -->
            <defs
               id="defs58">
              <path
                 d="M 26.59375 63.796875  C 26.59375 65.890625 26.5 66 25.09375 66  C 21.203125 61.359375 15.296875 59.890625 9.703125 59.6875  C 9.40625 59.6875 8.90625 59.6875 8.796875 59.5  C 8.703125 59.296875 8.703125 59.09375 8.703125 57  C 11.796875 57 17 57.59375 21 59.984375  L 21 7.296875  C 21 3.796875 20.796875 2.59375 12.203125 2.59375  L 9.203125 2.59375  L 9.203125 0  C 14 0.09375 19 0.1875 23.796875 0.1875  C 28.59375 0.1875 33.59375 0.09375 38.40625 0  L 38.40625 2.59375  L 35.40625 2.59375  C 26.796875 2.59375 26.59375 3.6875 26.59375 7.296875  z "
                 id="CMR17-49" />
            </defs>
            <g
               transform="translate(182.0662 208.026081)scale(0.14 -0.14)"
               id="g66">
              <use
                 transform="scale(0.996264)"
                 xlink:href="#CMR17-49"
                 id="use60" />
              <use
                 transform="translate(45.690477 0)scale(0.996264)"
                 xlink:href="#CMMI12-58"
                 id="use62" />
              <use
                 transform="translate(72.787654 0)scale(0.996264)"
                 xlink:href="#CMR17-48"
                 id="use64" />
            </g>
          </g>
        </g>
        <g
           id="text_4">
          <!-- $u$ -->
          <defs
             id="defs71">
            <path
               d="M 34.09375 5.78125  C 35.40625 0.1875 40.203125 -1 42.59375 -1  C 45.796875 -1 48.203125 1.09375 49.796875 4.484375  C 51.5 8.078125 52.796875 13.953125 52.796875 14.265625  C 52.796875 14.75 52.40625 15.15625 51.796875 15.15625  C 50.90625 15.15625 50.796875 14.65625 50.40625 13.15625  C 48.59375 6.28125 46.796875 1 42.796875 1  C 39.796875 1 39.796875 4.28125 39.796875 5.578125  C 39.796875 7.875 40.09375 8.875 41.09375 13.0625  C 41.796875 15.75 42.5 18.453125 43.09375 21.234375  L 47.203125 37.5  C 47.90625 40 47.90625 40.1875 47.90625 40.484375  C 47.90625 41.984375 46.703125 43 45.203125 43  C 42.296875 43 41.59375 40.484375 41 38  C 40 34.109375 34.59375 12.65625 33.90625 9.171875  C 33.796875 9.171875 29.90625 1 22.59375 1  C 17.40625 1 16.40625 5.484375 16.40625 9.171875  C 16.40625 14.859375 19.203125 22.84375 21.796875 29.53125  C 23 32.71875 23.5 34.015625 23.5 36.015625  C 23.5 40.296875 20.40625 44 15.59375 44  C 6.40625 44 2.703125 29.53125 2.703125 28.71875  C 2.703125 28.328125 3.09375 27.828125 3.796875 27.828125  C 4.703125 27.828125 4.796875 28.234375 5.203125 29.625  C 7.59375 38.203125 11.5 41.984375 15.296875 41.984375  C 16.296875 41.984375 17.90625 41.890625 17.90625 38.703125  C 17.90625 36.109375 16.796875 33.21875 15.296875 29.421875  C 10.90625 17.546875 10.40625 13.765625 10.40625 10.765625  C 10.40625 0.59375 18.09375 -1 22.203125 -1  C 28.59375 -1 32.09375 3.390625 34.09375 5.78125  z "
               id="CMMI12-117" />
          </defs>
          <g
             transform="translate(126.680478 224.423986)scale(0.14 -0.14)"
             id="g75">
            <use
               transform="scale(0.996264)"
               xlink:href="#CMMI12-117"
               id="use73" />
          </g>
        </g>
      </g>
      <g
         id="matplotlib.axis_2">
        <g
           id="ytick_1">
          <g
             id="line2d_4">
            <defs
               id="defs80">
              <path
                 d="M 0 0  L -3.5 0  "
                 id="mdfd1b5b394"
                 style="stroke:#000000;stroke-width:0.8;" />
            </defs>
            <g
               id="g84">
              <use
                 style="stroke:#000000;stroke-width:0.8;"
                 x="49.598278"
                 xlink:href="#mdfd1b5b394"
                 y="184.997426"
                 id="use82" />
            </g>
          </g>
          <g
             id="text_5">
            <!-- $0.0$ -->
            <g
               transform="translate(25.147696 189.840364)scale(0.14 -0.14)"
               id="g93">
              <use
                 transform="scale(0.996264)"
                 xlink:href="#CMR17-48"
                 id="use87" />
              <use
                 transform="translate(45.690477 0)scale(0.996264)"
                 xlink:href="#CMMI12-58"
                 id="use89" />
              <use
                 transform="translate(72.787654 0)scale(0.996264)"
                 xlink:href="#CMR17-48"
                 id="use91" />
            </g>
          </g>
        </g>
        <g
           id="ytick_2">
          <g
             id="line2d_5">
            <g
               id="g99">
              <use
                 style="stroke:#000000;stroke-width:0.8;"
                 x="49.598278"
                 xlink:href="#mdfd1b5b394"
                 y="127.335799"
                 id="use97" />
            </g>
          </g>
          <g
             id="text_6">
            <!-- $0.5$ -->
            <g
               transform="translate(25.147696 132.178738)scale(0.14 -0.14)"
               id="g108">
              <use
                 transform="scale(0.996264)"
                 xlink:href="#CMR17-48"
                 id="use102" />
              <use
                 transform="translate(45.690477 0)scale(0.996264)"
                 xlink:href="#CMMI12-58"
                 id="use104" />
              <use
                 transform="translate(72.787654 0)scale(0.996264)"
                 xlink:href="#CMR17-53"
                 id="use106" />
            </g>
          </g>
        </g>
        <g
           id="ytick_3">
          <g
             id="line2d_6">
            <g
               id="g114">
              <use
                 style="stroke:#000000;stroke-width:0.8;"
                 x="49.598278"
                 xlink:href="#mdfd1b5b394"
                 y="69.674173"
                 id="use112" />
            </g>
          </g>
          <g
             id="text_7">
            <!-- $1.0$ -->
            <g
               transform="translate(25.147696 74.517111)scale(0.14 -0.14)"
               id="g123">
              <use
                 transform="scale(0.996264)"
                 xlink:href="#CMR17-49"
                 id="use117" />
              <use
                 transform="translate(45.690477 0)scale(0.996264)"
                 xlink:href="#CMMI12-58"
                 id="use119" />
              <use
                 transform="translate(72.787654 0)scale(0.996264)"
                 xlink:href="#CMR17-48"
                 id="use121" />
            </g>
          </g>
        </g>
        <g
           id="text_8">
          <!-- $f(u)$ -->
          <defs
             id="defs130">
            <path
               d="M 44.59375 40.09375  C 46.59375 40.09375 47.40625 40.09375 47.40625 41.984375  C 47.40625 43 46.59375 43 44.796875 43  L 36.703125 43  C 38.59375 53.09375 40 60.09375 40.796875 63.296875  C 41.40625 65.6875 43.5 67.984375 46.09375 67.984375  C 48.203125 67.984375 50.296875 67.09375 51.296875 66.1875  C 47.40625 65.796875 46.203125 62.890625 46.203125 61.1875  C 46.203125 59.1875 47.703125 58 49.59375 58  C 51.59375 58 54.59375 59.6875 54.59375 63.5  C 54.59375 67.6875 50.40625 70 46 70  C 41.703125 70 37.5 66.796875 35.5 62.890625  C 33.703125 59.390625 32.703125 55.828125 30.40625 43  L 23.703125 43  C 21.796875 43 20.796875 43 20.796875 41.1875  C 20.796875 40.09375 21.40625 40.09375 23.40625 40.09375  L 29.796875 40.09375  C 28 30.890625 23.90625 8.515625 21.59375 -2.0625  C 19.90625 -10.703125 18.40625 -18 13.40625 -18  C 13.09375 -18 10.203125 -18 8.40625 -16.109375  C 13.5 -15.703125 13.5 -11.3125 13.5 -11.203125  C 13.5 -9.203125 12 -8 10.09375 -8  C 8.09375 -8 5.09375 -9.703125 5.09375 -13.515625  C 5.09375 -17.8125 9.5 -20 13.40625 -20  C 23.59375 -20 27.796875 -1.765625 28.90625 3.171875  C 30.703125 10.796875 35.59375 37.125 36.09375 40.09375  z "
               id="CMMI12-102" />
            <path
               d="M 30.59375 -24.40625  C 30.59375 -24.3125 30.59375 -24.109375 30.296875 -23.8125  C 25.703125 -19.109375 13.40625 -6.296875 13.40625 24.9375  C 13.40625 56.171875 25.5 68.875 30.40625 73.890625  C 30.40625 73.984375 30.59375 74.1875 30.59375 74.484375  C 30.59375 74.796875 30.296875 75 29.90625 75  C 28.796875 75 20.296875 67.578125 15.40625 56.5625  C 10.40625 45.453125 9 34.65625 9 25.046875  C 9 17.828125 9.703125 5.625 15.703125 -7.296875  C 20.5 -17.703125 28.703125 -25 29.90625 -25  C 30.40625 -25 30.59375 -24.8125 30.59375 -24.40625  z "
               id="CMR17-40" />
            <path
               d="M 26.296875 24.9375  C 26.296875 32.140625 25.59375 44.359375 19.59375 57.265625  C 14.796875 67.6875 6.59375 75 5.40625 75  C 5.09375 75 4.703125 74.890625 4.703125 74.390625  C 4.703125 74.1875 4.796875 74.09375 4.90625 73.890625  C 9.703125 68.875 21.90625 56.171875 21.90625 25.046875  C 21.90625 -6.1875 9.796875 -18.90625 4.90625 -23.90625  C 4.796875 -24.109375 4.703125 -24.203125 4.703125 -24.40625  C 4.703125 -24.90625 5.09375 -25 5.40625 -25  C 6.5 -25 15 -17.609375 19.90625 -6.59375  C 24.90625 4.515625 26.296875 15.328125 26.296875 24.9375  z "
               id="CMR17-41" />
          </defs>
          <g
             transform="translate(17.660772 134.87752)rotate(-90)scale(0.14 -0.14)"
             id="g140">
            <use
               transform="scale(0.996264)"
               xlink:href="#CMMI12-102"
               id="use132" />
            <use
               transform="translate(58.720305 0)scale(0.996264)"
               xlink:href="#CMR17-40"
               id="use134" />
            <use
               transform="translate(94.001073 0)scale(0.996264)"
               xlink:href="#CMMI12-117"
               id="use136" />
            <use
               transform="translate(149.521402 0)scale(0.996264)"
               xlink:href="#CMR17-41"
               id="use138" />
          </g>
        </g>
      </g>
      <g
         id="line2d_7">
        <path
           clip-path="url(#p29db507be5)"
           d="M 56.959062 184.997426  L 58.446089 171.562981  L 59.933116 165.998956  L 61.420143 161.730583  L 62.90717 158.133512  L 64.394197 154.965994  L 65.881224 152.104108  L 67.368251 149.474283  L 68.855278 147.028621  L 70.342305 144.733878  L 71.829332 142.565874  L 73.316359 140.506375  L 74.803386 138.541232  L 76.290413 136.659208  L 77.77744 134.851205  L 79.264467 133.109736  L 80.751494 131.428556  L 82.238521 129.80239  L 83.725548 128.226739  L 85.212575 126.697726  L 86.699602 125.211988  L 88.186629 123.766584  L 89.673655 122.358922  L 91.160682 120.986711  L 92.647709 119.647909  L 94.134736 118.34069  L 95.621763 117.063413  L 97.10879 115.814598  L 98.595817 114.592904  L 100.082844 113.397113  L 101.569871 112.226113  L 103.056898 111.078888  L 104.543925 109.954506  L 106.030952 108.852109  L 107.517979 107.770907  L 109.005006 106.710171  L 110.492033 105.669223  L 111.97906 104.647436  L 113.466087 103.644226  L 114.953114 102.65905  L 116.440141 101.6914  L 117.927168 100.740802  L 119.414195 99.806811  L 120.901222 98.889011  L 122.388249 97.987011  L 123.875276 97.100442  L 125.362303 96.228959  L 126.84933 95.372234  L 128.336357 94.529959  L 129.823384 93.701842  L 131.310411 92.887607  L 132.797438 92.086992  L 134.284465 91.29975  L 135.771492 90.525644  L 137.258519 89.76445  L 138.745546 89.015955  L 140.232573 88.279957  L 141.7196 87.55626  L 143.206627 86.844681  L 144.693654 86.145043  L 146.180681 85.457176  L 147.667708 84.78092  L 149.154735 84.116119  L 150.641762 83.462625  L 152.128789 82.820295  L 153.615816 82.188993  L 155.102843 81.568586  L 156.58987 80.958949  L 158.076897 80.359959  L 159.563924 79.7715  L 161.050951 79.193456  L 162.537978 78.625721  L 164.025005 78.068186  L 165.512032 77.520752  L 166.999059 76.983317  L 168.486086 76.455788  L 169.973113 75.938071  L 171.46014 75.430076  L 172.947167 74.931716  L 174.434194 74.442907  L 175.921221 73.963564  L 177.408248 73.493609  L 178.895275 73.032963  L 180.382302 72.581551  L 181.869329 72.139297  L 183.356356 71.70613  L 184.843383 71.281979  L 186.33041 70.866774  L 187.817437 70.460449  L 189.304464 70.062937  L 190.791491 69.674173  L 192.278518 69.294094  L 193.765545 68.922638  L 195.252572 68.559744  L 196.739599 68.205351  L 198.226626 67.859401  L 199.713653 67.521837  L 201.20068 67.1926  L 202.687707 66.871635  L 204.174734 66.558887  "
           style="fill:none;stroke:#1f77b4;stroke-linecap:square;stroke-width:1.5;"
           id="path144" />
      </g>
      <g
         id="line2d_8">
        <path
           clip-path="url(#p29db507be5)"
           d="M 56.959062 184.997426  L 58.446089 141.555569  L 59.933116 133.407067  L 61.420143 127.982463  L 62.90717 123.816518  L 64.394197 120.397683  L 65.881224 117.481139  L 67.368251 114.92892  L 68.855278 112.654895  L 70.342305 110.601351  L 71.829332 108.727555  L 73.316359 107.003586  L 74.803386 105.406757  L 76.290413 103.919416  L 77.77744 102.527537  L 79.264467 101.219765  L 80.751494 99.986772  L 82.238521 98.820785  L 83.725548 97.715257  L 85.212575 96.664612  L 86.699602 95.664059  L 88.186629 94.70945  L 89.673655 93.797162  L 91.160682 92.924014  L 92.647709 92.087194  L 94.134736 91.284203  L 95.621763 90.512807  L 97.10879 89.771003  L 98.595817 89.056984  L 100.082844 88.369115  L 101.569871 87.70591  L 103.056898 87.066015  L 104.543925 86.448193  L 106.030952 85.851305  L 107.517979 85.274308  L 109.005006 84.716236  L 110.492033 84.176198  L 111.97906 83.653366  L 113.466087 83.146972  L 114.953114 82.656302  L 116.440141 82.180686  L 117.927168 81.719501  L 119.414195 81.272162  L 120.901222 80.838122  L 122.388249 80.416863  L 123.875276 80.007902  L 125.362303 79.610781  L 126.84933 79.225068  L 128.336357 78.850354  L 129.823384 78.486255  L 131.310411 78.132403  L 132.797438 77.788451  L 134.284465 77.454069  L 135.771492 77.128944  L 137.258519 76.812776  L 138.745546 76.50528  L 140.232573 76.206186  L 141.7196 75.915234  L 143.206627 75.632175  L 144.693654 75.356775  L 146.180681 75.088804  L 147.667708 74.828047  L 149.154735 74.574295  L 150.641762 74.327348  L 152.128789 74.087016  L 153.615816 73.853112  L 155.102843 73.625461  L 156.58987 73.403893  L 158.076897 73.188244  L 159.563924 72.978356  L 161.050951 72.774077  L 162.537978 72.575261  L 164.025005 72.381768  L 165.512032 72.193461  L 166.999059 72.010208  L 168.486086 71.831884  L 169.973113 71.658366  L 171.46014 71.489536  L 172.947167 71.32528  L 174.434194 71.165486  L 175.921221 71.01005  L 177.408248 70.858867  L 178.895275 70.711838  L 180.382302 70.568866  L 181.869329 70.429857  L 183.356356 70.294722  L 184.843383 70.163372  L 186.33041 70.035724  L 187.817437 69.911693  L 189.304464 69.791202  L 190.791491 69.674173  L 192.278518 69.560531  L 193.765545 69.450204  L 195.252572 69.343122  L 196.739599 69.239217  L 198.226626 69.138422  L 199.713653 69.040675  L 201.20068 68.945913  L 202.687707 68.854076  L 204.174734 68.765106  "
           style="fill:none;stroke:#ff7f0e;stroke-linecap:square;stroke-width:1.5;"
           id="path147" />
      </g>
      <g
         id="line2d_9">
        <path
           clip-path="url(#p29db507be5)"
           d="M 56.959062 184.997426  L 58.446089 107.875222  L 59.933116 101.440817  L 61.420143 97.545956  L 62.90717 94.742125  L 64.394197 92.554025  L 65.881224 90.763666  L 67.368251 89.252228  L 68.855278 87.947568  L 70.342305 86.802498  L 71.829332 85.784413  L 73.316359 84.869819  L 74.803386 84.041214  L 76.290413 83.285201  L 77.77744 82.591294  L 79.264467 81.951125  L 80.751494 81.357911  L 82.238521 80.806075  L 83.725548 80.290973  L 85.212575 79.808698  L 86.699602 79.355933  L 88.186629 78.929835  L 89.673655 78.527948  L 91.160682 78.148138  L 92.647709 77.788537  L 94.134736 77.447504  L 95.621763 77.123583  L 97.10879 76.815483  L 98.595817 76.522048  L 100.082844 76.242246  L 101.569871 75.975144  L 103.056898 75.7199  L 104.543925 75.475751  L 106.030952 75.242006  L 107.517979 75.018029  L 109.005006 74.803245  L 110.492033 74.597122  L 111.97906 74.399172  L 113.466087 74.208948  L 114.953114 74.026035  L 116.440141 73.85005  L 117.927168 73.680636  L 119.414195 73.517465  L 120.901222 73.36023  L 122.388249 73.208644  L 123.875276 73.06244  L 125.362303 72.92137  L 126.84933 72.7852  L 128.336357 72.653711  L 129.823384 72.526697  L 131.310411 72.403966  L 132.797438 72.285337  L 134.284465 72.170637  L 135.771492 72.059706  L 137.258519 71.952391  L 138.745546 71.848549  L 140.232573 71.748044  L 141.7196 71.650746  L 143.206627 71.556534  L 144.693654 71.465291  L 146.180681 71.376908  L 147.667708 71.291281  L 149.154735 71.20831  L 150.641762 71.1279  L 152.128789 71.049962  L 153.615816 70.97441  L 155.102843 70.901163  L 156.58987 70.830142  L 158.076897 70.761272  L 159.563924 70.694484  L 161.050951 70.629709  L 162.537978 70.566881  L 164.025005 70.50594  L 165.512032 70.446825  L 166.999059 70.38948  L 168.486086 70.33385  L 169.973113 70.279883  L 171.46014 70.227528  L 172.947167 70.176738  L 174.434194 70.127466  L 175.921221 70.079668  L 177.408248 70.033301  L 178.895275 69.988326  L 180.382302 69.944701  L 181.869329 69.902391  L 183.356356 69.861357  L 184.843383 69.821566  L 186.33041 69.782984  L 187.817437 69.745578  L 189.304464 69.709318  L 190.791491 69.674173  L 192.278518 69.640115  L 193.765545 69.607115  L 195.252572 69.575147  L 196.739599 69.544186  L 198.226626 69.514206  L 199.713653 69.485184  L 201.20068 69.457096  L 202.687707 69.42992  L 204.174734 69.403635  "
           style="fill:none;stroke:#2ca02c;stroke-linecap:square;stroke-width:1.5;"
           id="path150" />
      </g>
      <g
         id="line2d_10">
        <path
           clip-path="url(#p29db507be5)"
           d="M 56.959062 184.997426  L 204.174734 58.141848  "
           style="fill:none;stroke:#d62728;stroke-dasharray:5.55,2.4;stroke-dashoffset:0;stroke-width:1.5;"
           id="path153" />
      </g>
      <g
         id="patch_3">
        <path
           d="M 49.598278 191.340205  L 49.598278 51.799069  "
           style="fill:none;stroke:#000000;stroke-linecap:square;stroke-linejoin:miter;stroke-width:0.8;"
           id="path156" />
      </g>
      <g
         id="patch_4">
        <path
           d="M 211.535517 191.340205  L 211.535517 51.799069  "
           style="fill:none;stroke:#000000;stroke-linecap:square;stroke-linejoin:miter;stroke-width:0.8;"
           id="path159" />
      </g>
      <g
         id="patch_5">
        <path
           d="M 49.598278 191.340205  L 211.535517 191.340205  "
           style="fill:none;stroke:#000000;stroke-linecap:square;stroke-linejoin:miter;stroke-width:0.8;"
           id="path162" />
      </g>
      <g
         id="patch_6">
        <path
           d="M 49.598278 51.799069  L 211.535517 51.799069  "
           style="fill:none;stroke:#000000;stroke-linecap:square;stroke-linejoin:miter;stroke-width:0.8;"
           id="path165" />
      </g>
      <g
         id="text_9">
        <!-- $r=0{,}1$ -->
        <defs
           id="defs171">
          <path
             d="M 38.90625 41.140625  C 35.796875 40.59375 34.203125 38.390625 34.203125 36.1875  C 34.203125 33.796875 36.09375 32.984375 37.5 32.984375  C 40.296875 32.984375 42.59375 35.390625 42.59375 38.390625  C 42.59375 41.421875 39.5 44 34.5 44  C 30.5 44 25.90625 42.1875 21.703125 36.484375  C 21 41.5625 17 44 13 44  C 9.09375 44 7.09375 41.28125 5.90625 39.1875  C 4.203125 35.59375 2.703125 29.5625 2.703125 29.0625  C 2.703125 28.65625 3.09375 28.140625 3.796875 28.140625  C 4.59375 28.140625 4.703125 28.25 5.296875 30.578125  C 6.796875 36.59375 8.703125 41.984375 12.703125 41.984375  C 15.09375 41.984375 15.796875 40.6875 15.796875 37.796875  C 15.796875 35.59375 14.796875 31.6875 14.09375 28.546875  L 11.296875 17.65625  C 10.90625 15.734375 9.796875 11.1875 9.296875 9.375  C 8.59375 6.75 7.5 2 7.5 1.5  C 7.5 0.09375 8.59375 -1 10.09375 -1  C 11.203125 -1 13.09375 -0.3125 13.703125 1.703125  C 14 2.5 17.703125 17.75 18.296875 20.078125  C 18.796875 22.296875 19.40625 24.40625 19.90625 26.640625  C 20.296875 28.046875 20.703125 29.65625 21 30.96875  C 21.296875 31.875 24 36.796875 26.5 38.984375  C 27.703125 40.09375 30.296875 41.984375 34.40625 41.984375  C 36 41.984375 37.59375 41.78125 38.90625 41.140625  z "
             id="CMMI12-114" />
          <path
             d="M 64.296875 32  C 65.796875 32 67.296875 32 67.296875 33.6875  C 67.296875 35.5 65.59375 35.5 63.90625 35.5  L 8 35.5  C 6.296875 35.5 4.59375 35.5 4.59375 33.6875  C 4.59375 32 6.09375 32 7.59375 32  z M 63.90625 14.484375  C 65.59375 14.484375 67.296875 14.484375 67.296875 16.296875  C 67.296875 18 65.796875 18 64.296875 18  L 7.59375 18  C 6.09375 18 4.59375 18 4.59375 16.296875  C 4.59375 14.484375 6.296875 14.484375 8 14.484375  z "
             id="CMR17-61" />
          <path
             d="M 19.5 -0.40625  C 19.5 5.390625 17.59375 9.6875 13.5 9.6875  C 10.296875 9.6875 8.703125 7.09375 8.703125 4.890625  C 8.703125 2.6875 10.203125 0 13.59375 0  C 14.90625 0 16 0.390625 16.90625 1.296875  C 17.09375 1.5 17.203125 1.5 17.296875 1.5  C 17.5 1.5 17.5 0.09375 17.5 -0.40625  C 17.5 -3.640625 16.90625 -10.03125 11.09375 -16.421875  C 10 -17.609375 10 -17.8125 10 -18  C 10 -18.5 10.5 -19 11 -19  C 11.796875 -19 19.5 -11.703125 19.5 -0.40625  z "
             id="CMMI12-59" />
        </defs>
        <g
           transform="translate(105.153728 45.799069)scale(0.168 -0.168)"
           id="g183">
          <use
             transform="scale(0.996264)"
             xlink:href="#CMMI12-114"
             id="use173" />
          <use
             transform="translate(74.344621 0)scale(0.996264)"
             xlink:href="#CMR17-61"
             id="use175" />
          <use
             transform="translate(173.733418 0)scale(0.996264)"
             xlink:href="#CMR17-48"
             id="use177" />
          <use
             transform="translate(219.423895 0)scale(0.996264)"
             xlink:href="#CMMI12-59"
             id="use179" />
          <use
             transform="translate(246.521072 0)scale(0.996264)"
             xlink:href="#CMR17-49"
             id="use181" />
        </g>
      </g>
    </g>
    <g
       id="axes_2">
      <g
         id="patch_7">
        <path
           d="M 269.053795 191.340205  L 430.991034 191.340205  L 430.991034 51.799069  L 269.053795 51.799069  z "
           style="fill:#ffffff;"
           id="path187" />
      </g>
      <g
         id="matplotlib.axis_3">
        <g
           id="xtick_4">
          <g
             id="line2d_11">
            <g
               id="g192">
              <use
                 style="stroke:#000000;stroke-width:0.8;"
                 x="276.414579"
                 xlink:href="#m1092b774ec"
                 y="191.340205"
                 id="use190" />
            </g>
          </g>
          <g
             id="text_10">
            <!-- $0$ -->
            <g
               transform="translate(273.000335 208.026081)scale(0.14 -0.14)"
               id="g197">
              <use
                 transform="scale(0.996264)"
                 xlink:href="#CMR17-48"
                 id="use195" />
            </g>
          </g>
        </g>
        <g
           id="xtick_5">
          <g
             id="line2d_12">
            <g
               id="g203">
              <use
                 style="stroke:#000000;stroke-width:0.8;"
                 x="374.55836"
                 xlink:href="#m1092b774ec"
                 y="191.340205"
                 id="use201" />
            </g>
          </g>
          <g
             id="text_11">
            <!-- $1$ -->
            <g
               transform="translate(371.144116 208.026081)scale(0.14 -0.14)"
               id="g208">
              <use
                 transform="scale(0.996264)"
                 xlink:href="#CMR17-49"
                 id="use206" />
            </g>
          </g>
        </g>
        <g
           id="text_12">
          <!-- $u$ -->
          <g
             transform="translate(346.135996 224.423986)scale(0.14 -0.14)"
             id="g214">
            <use
               transform="scale(0.996264)"
               xlink:href="#CMMI12-117"
               id="use212" />
          </g>
        </g>
      </g>
      <g
         id="matplotlib.axis_4">
        <g
           id="ytick_4">
          <g
             id="line2d_13">
            <g
               id="g220">
              <use
                 style="stroke:#000000;stroke-width:0.8;"
                 x="269.053795"
                 xlink:href="#mdfd1b5b394"
                 y="184.997426"
                 id="use218" />
            </g>
          </g>
          <g
             id="text_13">
            <!-- $0.0$ -->
            <g
               transform="translate(244.603213 189.840364)scale(0.14 -0.14)"
               id="g229">
              <use
                 transform="scale(0.996264)"
                 xlink:href="#CMR17-48"
                 id="use223" />
              <use
                 transform="translate(45.690477 0)scale(0.996264)"
                 xlink:href="#CMMI12-58"
                 id="use225" />
              <use
                 transform="translate(72.787654 0)scale(0.996264)"
                 xlink:href="#CMR17-48"
                 id="use227" />
            </g>
          </g>
        </g>
        <g
           id="ytick_5">
          <g
             id="line2d_14">
            <g
               id="g235">
              <use
                 style="stroke:#000000;stroke-width:0.8;"
                 x="269.053795"
                 xlink:href="#mdfd1b5b394"
                 y="142.712233"
                 id="use233" />
            </g>
          </g>
          <g
             id="text_14">
            <!-- $0.5$ -->
            <g
               transform="translate(244.603213 147.555171)scale(0.14 -0.14)"
               id="g244">
              <use
                 transform="scale(0.996264)"
                 xlink:href="#CMR17-48"
                 id="use238" />
              <use
                 transform="translate(45.690477 0)scale(0.996264)"
                 xlink:href="#CMMI12-58"
                 id="use240" />
              <use
                 transform="translate(72.787654 0)scale(0.996264)"
                 xlink:href="#CMR17-53"
                 id="use242" />
            </g>
          </g>
        </g>
        <g
           id="ytick_6">
          <g
             id="line2d_15">
            <g
               id="g250">
              <use
                 style="stroke:#000000;stroke-width:0.8;"
                 x="269.053795"
                 xlink:href="#mdfd1b5b394"
                 y="100.42704"
                 id="use248" />
            </g>
          </g>
          <g
             id="text_15">
            <!-- $1.0$ -->
            <g
               transform="translate(244.603213 105.269979)scale(0.14 -0.14)"
               id="g259">
              <use
                 transform="scale(0.996264)"
                 xlink:href="#CMR17-49"
                 id="use253" />
              <use
                 transform="translate(45.690477 0)scale(0.996264)"
                 xlink:href="#CMMI12-58"
                 id="use255" />
              <use
                 transform="translate(72.787654 0)scale(0.996264)"
                 xlink:href="#CMR17-48"
                 id="use257" />
            </g>
          </g>
        </g>
        <g
           id="ytick_7">
          <g
             id="line2d_16">
            <g
               id="g265">
              <use
                 style="stroke:#000000;stroke-width:0.8;"
                 x="269.053795"
                 xlink:href="#mdfd1b5b394"
                 y="58.141848"
                 id="use263" />
            </g>
          </g>
          <g
             id="text_16">
            <!-- $1.5$ -->
            <g
               transform="translate(244.603213 62.984786)scale(0.14 -0.14)"
               id="g274">
              <use
                 transform="scale(0.996264)"
                 xlink:href="#CMR17-49"
                 id="use268" />
              <use
                 transform="translate(45.690477 0)scale(0.996264)"
                 xlink:href="#CMMI12-58"
                 id="use270" />
              <use
                 transform="translate(72.787654 0)scale(0.996264)"
                 xlink:href="#CMR17-53"
                 id="use272" />
            </g>
          </g>
        </g>
        <g
           id="text_17">
          <!-- $f(u)$ -->
          <g
             transform="translate(237.116289 134.87752)rotate(-90)scale(0.14 -0.14)"
             id="g286">
            <use
               transform="scale(0.996264)"
               xlink:href="#CMMI12-102"
               id="use278" />
            <use
               transform="translate(58.720305 0)scale(0.996264)"
               xlink:href="#CMR17-40"
               id="use280" />
            <use
               transform="translate(94.001073 0)scale(0.996264)"
               xlink:href="#CMMI12-117"
               id="use282" />
            <use
               transform="translate(149.521402 0)scale(0.996264)"
               xlink:href="#CMR17-41"
               id="use284" />
          </g>
        </g>
      </g>
      <g
         id="line2d_17">
        <path
           clip-path="url(#pa529923787)"
           d="M 276.414579 184.997426  L 277.901606 156.706893  L 279.388633 145.016116  L 280.87566 136.086695  L 282.362687 128.610864  L 283.849714 122.085451  L 285.336741 116.254623  L 286.823768 110.967975  L 288.310795 106.128668  L 289.797822 101.670309  L 291.284849 97.545215  L 292.771876 93.717888  L 294.258903 90.161125  L 295.74593 86.853562  L 297.232957 83.778067  L 298.719984 80.920636  L 300.207011 78.26963  L 301.694038 75.815211  L 303.181065 73.548938  L 304.668092 71.463458  L 306.155119 69.552273  L 307.642146 67.809561  L 309.129173 66.230033  L 310.6162 64.808823  L 312.103227 63.541398  L 313.590254 62.423486  L 315.077281 61.451025  L 316.564308 60.620107  L 318.051335 59.926948  L 319.538362 59.367855  L 321.025389 58.939201  L 322.512416 58.637405  L 323.999442 58.458917  L 325.486469 58.400205  L 326.973496 58.457743  L 328.460523 58.628008  L 329.94755 58.90747  L 331.434577 59.292591  L 332.921604 59.77982  L 334.408631 60.365594  L 335.895658 61.046336  L 337.382685 61.818459  L 338.869712 62.678362  L 340.356739 63.622436  L 341.843766 64.647066  L 343.330793 65.748635  L 344.81782 66.923524  L 346.304847 68.168118  L 347.791874 69.478813  L 349.278901 70.852015  L 350.765928 72.284145  L 352.252955 73.771649  L 353.739982 75.310996  L 355.227009 76.898686  L 356.714036 78.531252  L 358.201063 80.205269  L 359.68809 81.917354  L 361.175117 83.66417  L 362.662144 85.442436  L 364.149171 87.248925  L 365.636198 89.080469  L 367.123225 90.933967  L 368.610252 92.806381  L 370.097279 94.694748  L 371.584306 96.596176  L 373.071333 98.507852  L 374.55836 100.42704  L 376.045387 102.35109  L 377.532414 104.277432  L 379.019441 106.203585  L 380.506468 108.127157  L 381.993495 110.045842  L 383.480522 111.957429  L 384.967549 113.859797  L 386.454576 115.750919  L 387.941603 117.62886  L 389.42863 119.491782  L 390.915657 121.337938  L 392.402684 123.165676  L 393.889711 124.97344  L 395.376738 126.759763  L 396.863765 128.523276  L 398.350792 130.262697  L 399.837819 131.976837  L 401.324846 133.664598  L 402.811873 135.324967  L 404.2989 136.957019  L 405.785927 138.559916  L 407.272954 140.1329  L 408.759981 141.675296  L 410.247008 143.186509  L 411.734035 144.666018  L 413.221062 146.11338  L 414.708089 147.528223  L 416.195116 148.910245  L 417.682143 150.259213  L 419.16917 151.574957  L 420.656197 152.85737  L 422.143224 154.106407  L 423.630251 155.322077  "
           style="fill:none;stroke:#1f77b4;stroke-linecap:square;stroke-width:1.5;"
           id="path290" />
      </g>
      <g
         id="line2d_18">
        <path
           clip-path="url(#pa529923787)"
           d="M 276.414579 184.997426  L 277.901606 66.113016  L 279.388633 58.591523  L 280.87566 59.872918  L 282.362687 64.652301  L 283.849714 70.989043  L 285.336741 77.95155  L 286.823768 85.037423  L 288.310795 91.962326  L 289.797822 98.564823  L 291.284849 104.757195  L 292.771876 110.49755  L 294.258903 115.772922  L 295.74593 120.588585  L 297.232957 124.961055  L 298.719984 128.913456  L 300.207011 132.472396  L 301.694038 135.665879  L 303.181065 138.521914  L 304.668092 141.067613  L 306.155119 143.32863  L 307.642146 145.328826  L 309.129173 147.090102  L 310.6162 148.632351  L 312.103227 149.973471  L 313.590254 151.129433  L 315.077281 152.114381  L 316.564308 152.940746  L 318.051335 153.619369  L 319.538362 154.159619  L 321.025389 154.569525  L 322.512416 154.855882  L 323.999442 155.024368  L 325.486469 155.07965  L 326.973496 155.025475  L 328.460523 154.864769  L 329.94755 154.59972  L 331.434577 154.231862  L 332.921604 153.762155  L 334.408631 153.191057  L 335.895658 152.518605  L 337.382685 151.744486  L 338.869712 150.86811  L 340.356739 149.888691  L 341.843766 148.805316  L 343.330793 147.617029  L 344.81782 146.322907  L 346.304847 144.922145  L 347.791874 143.414137  L 349.278901 141.79856  L 350.765928 140.075456  L 352.252955 138.245322  L 353.739982 136.309181  L 355.227009 134.268668  L 356.714036 132.126098  L 358.201063 129.884534  L 359.68809 127.547841  L 361.175117 125.120737  L 362.662144 122.608823  L 364.149171 120.018607  L 365.636198 117.357512  L 367.123225 114.633862  L 368.610252 111.856857  L 370.097279 109.03653  L 371.584306 106.183686  L 373.071333 103.309824  L 374.55836 100.42704  L 376.045387 97.547929  L 377.532414 94.685454  L 379.019441 91.852824  L 380.506468 89.063355  L 381.993495 86.330326  L 383.480522 83.666835  L 384.967549 81.085661  L 386.454576 78.59912  L 387.941603 76.218936  L 389.42863 73.956119  L 390.915657 71.820854  L 392.402684 69.822406  L 393.889711 67.969038  L 395.376738 66.267947  L 396.863765 64.725216  L 398.350792 63.345784  L 399.837819 62.133432  L 401.324846 61.09079  L 402.811873 60.21935  L 404.2989 59.519503  L 405.785927 58.990587  L 407.272954 58.630937  L 408.759981 58.437958  L 410.247008 58.408197  L 411.734035 58.537422  L 413.221062 58.820706  L 414.708089 59.252512  L 416.195116 59.826781  L 417.682143 60.537017  L 419.16917 61.376372  L 420.656197 62.337723  L 422.143224 63.413752  L 423.630251 64.597017  "
           style="fill:none;stroke:#ff7f0e;stroke-linecap:square;stroke-width:1.5;"
           id="path293" />
      </g>
      <g
         id="line2d_19">
        <path
           clip-path="url(#pa529923787)"
           d="M 276.414579 184.997426  L 277.901606 147.218612  L 279.388633 154.899254  L 280.87566 153.671855  L 282.362687 148.799727  L 283.849714 141.635366  L 285.336741 132.891926  L 286.823768 123.18438  L 288.310795 113.111477  L 289.797822 103.224173  L 291.284849 93.976764  L 292.771876 85.695198  L 294.258903 78.570697  L 295.74593 72.674013  L 297.232957 67.981295  L 298.719984 64.403174  L 300.207011 61.811376  L 301.694038 60.060073  L 303.181065 59.001256  L 304.668092 58.494715  L 306.155119 58.413721  L 307.642146 58.647582  L 309.129173 59.102139  L 310.6162 59.698984  L 312.103227 60.374012  L 313.590254 61.075691  L 315.077281 61.763288  L 316.564308 62.405215  L 318.051335 62.977538  L 319.538362 63.462713  L 321.025389 63.848512  L 322.512416 64.127162  L 323.999442 64.294646  L 325.486469 64.350171  L 326.973496 64.295755  L 328.460523 64.13593  L 329.94755 63.877539  L 331.434577 63.529595  L 332.921604 63.103206  L 334.408631 62.611539  L 335.895658 62.069805  L 337.382685 61.495261  L 338.869712 60.907205  L 340.356739 60.326956  L 341.843766 59.77779  L 343.330793 59.284833  L 344.81782 58.874876  L 346.304847 58.576107  L 347.791874 58.417742  L 349.278901 58.429545  L 350.765928 58.641217  L 352.252955 59.081678  L 353.739982 59.778229  L 355.227009 60.75562  L 356.714036 62.03506  L 358.201063 63.633205  L 359.68809 65.561187  L 361.175117 67.823735  L 362.662144 70.418473  L 364.149171 73.33545  L 365.636198 76.556959  L 367.123225 80.057703  L 368.610252 83.805317  L 370.097279 87.761238  L 371.584306 91.881904  L 373.071333 96.120193  L 374.55836 100.42704  L 376.045387 104.753115  L 377.532414 109.050448  L 379.019441 113.273923  L 380.506468 117.382526  L 381.993495 121.340304  L 383.480522 125.117003  L 384.967549 128.688356  L 386.454576 132.036084  L 387.941603 135.147603  L 389.42863 138.015542  L 390.915657 140.637097  L 392.402684 143.013299  L 393.889711 145.148257  L 395.376738 147.048406  L 396.863765 148.721817  L 398.350792 150.17757  L 399.837819 151.42522  L 401.324846 152.474366  L 402.811873 153.334291  L 404.2989 154.01371  L 405.785927 154.520584  L 407.272954 154.861999  L 408.759981 155.044111  L 410.247008 155.072128  L 411.734035 154.950342  L 413.221062 154.682179  L 414.708089 154.270285  L 416.195116 153.716628  L 417.682143 153.022609  L 419.16917 152.189199  L 420.656197 151.217069  L 422.143224 150.106741  L 423.630251 148.858726  "
           style="fill:none;stroke:#2ca02c;stroke-linecap:square;stroke-width:1.5;"
           id="path296" />
      </g>
      <g
         id="line2d_20">
        <path
           clip-path="url(#pa529923787)"
           d="M 276.414579 184.997426  L 423.630251 58.141848  "
           style="fill:none;stroke:#d62728;stroke-dasharray:5.55,2.4;stroke-dashoffset:0;stroke-width:1.5;"
           id="path299" />
      </g>
      <g
         id="patch_8">
        <path
           d="M 269.053795 191.340205  L 269.053795 51.799069  "
           style="fill:none;stroke:#000000;stroke-linecap:square;stroke-linejoin:miter;stroke-width:0.8;"
           id="path302" />
      </g>
      <g
         id="patch_9">
        <path
           d="M 430.991034 191.340205  L 430.991034 51.799069  "
           style="fill:none;stroke:#000000;stroke-linecap:square;stroke-linejoin:miter;stroke-width:0.8;"
           id="path305" />
      </g>
      <g
         id="patch_10">
        <path
           d="M 269.053795 191.340205  L 430.991034 191.340205  "
           style="fill:none;stroke:#000000;stroke-linecap:square;stroke-linejoin:miter;stroke-width:0.8;"
           id="path308" />
      </g>
      <g
         id="patch_11">
        <path
           d="M 269.053795 51.799069  L 430.991034 51.799069  "
           style="fill:none;stroke:#000000;stroke-linecap:square;stroke-linejoin:miter;stroke-width:0.8;"
           id="path311" />
      </g>
      <g
         id="text_18">
        <!-- $r=1$ -->
        <g
           transform="translate(330.982502 45.799069)scale(0.168 -0.168)"
           id="g320">
          <use
             transform="scale(0.996264)"
             xlink:href="#CMMI12-114"
             id="use314" />
          <use
             transform="translate(74.344621 0)scale(0.996264)"
             xlink:href="#CMR17-61"
             id="use316" />
          <use
             transform="translate(173.733418 0)scale(0.996264)"
             xlink:href="#CMR17-49"
             id="use318" />
        </g>
      </g>
    </g>
    <g
       id="axes_3">
      <g
         id="patch_12">
        <path
           d="M 488.509312 191.340205  L 650.446551 191.340205  L 650.446551 51.799069  L 488.509312 51.799069  z "
           style="fill:#ffffff;"
           id="path324" />
      </g>
      <g
         id="matplotlib.axis_5">
        <g
           id="xtick_6">
          <g
             id="line2d_21">
            <g
               id="g329">
              <use
                 style="stroke:#000000;stroke-width:0.8;"
                 x="495.870096"
                 xlink:href="#m1092b774ec"
                 y="191.340205"
                 id="use327" />
            </g>
          </g>
          <g
             id="text_19">
            <!-- $0$ -->
            <g
               transform="translate(492.455852 208.026081)scale(0.14 -0.14)"
               id="g334">
              <use
                 transform="scale(0.996264)"
                 xlink:href="#CMR17-48"
                 id="use332" />
            </g>
          </g>
        </g>
        <g
           id="xtick_7">
          <g
             id="line2d_22">
            <g
               id="g340">
              <use
                 style="stroke:#000000;stroke-width:0.8;"
                 x="569.477932"
                 xlink:href="#m1092b774ec"
                 y="191.340205"
                 id="use338" />
            </g>
          </g>
          <g
             id="text_20">
            <!-- $1$ -->
            <g
               transform="translate(566.063688 208.026081)scale(0.14 -0.14)"
               id="g345">
              <use
                 transform="scale(0.996264)"
                 xlink:href="#CMR17-49"
                 id="use343" />
            </g>
          </g>
        </g>
        <g
           id="xtick_8">
          <g
             id="line2d_23">
            <g
               id="g351">
              <use
                 style="stroke:#000000;stroke-width:0.8;"
                 x="643.085768"
                 xlink:href="#m1092b774ec"
                 y="191.340205"
                 id="use349" />
            </g>
          </g>
          <g
             id="text_21">
            <!-- $2$ -->
            <defs
               id="defs355">
              <path
                 d="M 41.703125 15.46875  L 39.90625 15.46875  C 38.90625 8.390625 38.09375 7.1875 37.703125 6.59375  C 37.203125 5.796875 30 5.796875 28.59375 5.796875  L 9.40625 5.796875  C 13 9.6875 20 16.765625 28.5 24.9375  C 34.59375 30.71875 41.703125 37.5 41.703125 47.390625  C 41.703125 59.1875 32.296875 66 21.796875 66  C 10.796875 66 4.09375 56.296875 4.09375 47.296875  C 4.09375 43.390625 7 42.890625 8.203125 42.890625  C 9.203125 42.890625 12.203125 43.484375 12.203125 46.984375  C 12.203125 50.09375 9.59375 51 8.203125 51  C 7.59375 51 7 50.890625 6.59375 50.6875  C 8.5 59.1875 14.296875 63.390625 20.40625 63.390625  C 29.09375 63.390625 34.796875 56.5 34.796875 47.390625  C 34.796875 38.703125 29.703125 31.21875 24 24.734375  L 4.09375 2.296875  L 4.09375 0  L 39.296875 0  z "
                 id="CMR17-50" />
            </defs>
            <g
               transform="translate(639.671523 208.026081)scale(0.14 -0.14)"
               id="g359">
              <use
                 transform="scale(0.996264)"
                 xlink:href="#CMR17-50"
                 id="use357" />
            </g>
          </g>
        </g>
        <g
           id="text_22">
          <!-- $u$ -->
          <g
             transform="translate(565.591513 224.423986)scale(0.14 -0.14)"
             id="g365">
            <use
               transform="scale(0.996264)"
               xlink:href="#CMMI12-117"
               id="use363" />
          </g>
        </g>
      </g>
      <g
         id="matplotlib.axis_6">
        <g
           id="ytick_8">
          <g
             id="line2d_24">
            <g
               id="g371">
              <use
                 style="stroke:#000000;stroke-width:0.8;"
                 x="488.509312"
                 xlink:href="#mdfd1b5b394"
                 y="184.997426"
                 id="use369" />
            </g>
          </g>
          <g
             id="text_23">
            <!-- $0$ -->
            <g
               transform="translate(474.680824 189.840364)scale(0.14 -0.14)"
               id="g376">
              <use
                 transform="scale(0.996264)"
                 xlink:href="#CMR17-48"
                 id="use374" />
            </g>
          </g>
        </g>
        <g
           id="ytick_9">
          <g
             id="line2d_25">
            <g
               id="g382">
              <use
                 style="stroke:#000000;stroke-width:0.8;"
                 x="488.509312"
                 xlink:href="#mdfd1b5b394"
                 y="128.111815"
                 id="use380" />
            </g>
          </g>
          <g
             id="text_24">
            <!-- $1$ -->
            <g
               transform="translate(474.680824 132.954753)scale(0.14 -0.14)"
               id="g387">
              <use
                 transform="scale(0.996264)"
                 xlink:href="#CMR17-49"
                 id="use385" />
            </g>
          </g>
        </g>
        <g
           id="ytick_10">
          <g
             id="line2d_26">
            <g
               id="g393">
              <use
                 style="stroke:#000000;stroke-width:0.8;"
                 x="488.509312"
                 xlink:href="#mdfd1b5b394"
                 y="71.226204"
                 id="use391" />
            </g>
          </g>
          <g
             id="text_25">
            <!-- $2$ -->
            <g
               transform="translate(474.680824 76.069142)scale(0.14 -0.14)"
               id="g398">
              <use
                 transform="scale(0.996264)"
                 xlink:href="#CMR17-50"
                 id="use396" />
            </g>
          </g>
        </g>
        <g
           id="text_26">
          <!-- $f(u)$ -->
          <g
             transform="translate(467.1939 134.87752)rotate(-90)scale(0.14 -0.14)"
             id="g410">
            <use
               transform="scale(0.996264)"
               xlink:href="#CMMI12-102"
               id="use402" />
            <use
               transform="translate(58.720305 0)scale(0.996264)"
               xlink:href="#CMR17-40"
               id="use404" />
            <use
               transform="translate(94.001073 0)scale(0.996264)"
               xlink:href="#CMMI12-117"
               id="use406" />
            <use
               transform="translate(149.521402 0)scale(0.996264)"
               xlink:href="#CMR17-41"
               id="use408" />
          </g>
        </g>
      </g>
      <g
         id="line2d_27">
        <path
           clip-path="url(#p7e088cc880)"
           d="M 495.870096 184.997426  L 497.357123 148.783494  L 498.84415 133.877163  L 500.331177 122.579494  L 501.818204 113.231603  L 503.305231 105.201656  L 504.792258 98.172195  L 506.279285 91.958847  L 507.766312 86.444158  L 509.253339 81.548129  L 510.740366 77.213299  L 512.227393 73.396465  L 513.71442 70.063759  L 515.201447 67.187569  L 516.688474 64.744529  L 518.175501 62.714167  L 519.662528 61.077976  L 521.149555 59.81876  L 522.636582 58.920169  L 524.123609 58.366378  L 525.610636 58.141848  L 527.097663 58.231173  L 528.58469 58.61897  L 530.071717 59.289811  L 531.558744 60.228189  L 533.045771 61.418505  L 534.532798 62.845075  L 536.019825 64.49215  L 537.506852 66.343945  L 538.993879 68.38468  L 540.480906 70.598625  L 541.967933 72.97015  L 543.45496 75.483772  L 544.941987 78.124213  L 546.429014 80.876449  L 547.916041 83.725762  L 549.403068 86.657793  L 550.890095 89.658584  L 552.377122 92.714629  L 553.864149 95.81291  L 555.351176 98.940937  L 556.838203 102.086781  L 558.325229 105.239103  L 559.812256 108.387179  L 561.299283 111.520919  L 562.78631 114.630882  L 564.273337 117.708292  L 565.760364 120.745037  L 567.247391 123.733678  L 568.734418 126.667444  L 570.221445 129.540227  L 571.708472 132.346574  L 573.195499 135.081672  L 574.682526 137.741332  L 576.169553 140.321975  L 577.65658 142.820603  L 579.143607 145.234783  L 580.630634 147.562616  L 582.117661 149.802712  L 583.604688 151.95416  L 585.091715 154.016503  L 586.578742 155.9897  L 588.065769 157.874102  L 589.552796 159.670416  L 591.039823 161.379679  L 592.52685 163.003222  L 594.013877 164.542642  L 595.500904 165.999772  L 596.987931 167.376654  L 598.474958 168.675509  L 599.961985 169.898708  L 601.449012 171.048752  L 602.936039 172.128244  L 604.423066 173.139866  L 605.910093 174.086358  L 607.39712 174.970501  L 608.884147 175.795093  L 610.371174 176.562936  L 611.858201 177.276822  L 613.345228 177.939512  L 614.832255 178.553732  L 616.319282 179.122157  L 617.806309 179.647402  L 619.293336 180.132013  L 620.780363 180.578462  L 622.26739 180.98914  L 623.754417 181.366352  L 625.241444 181.712312  L 626.728471 182.029142  L 628.215498 182.318871  L 629.702525 182.58343  L 631.189552 182.824655  L 632.676579 183.044286  L 634.163606 183.243967  L 635.650633 183.425251  L 637.13766 183.589598  L 638.624687 183.738376  L 640.111714 183.872871  L 641.598741 183.994281  L 643.085768 184.103725  "
           style="fill:none;stroke:#1f77b4;stroke-linecap:square;stroke-width:1.5;"
           id="path414" />
      </g>
      <g
         id="line2d_28">
        <path
           clip-path="url(#p7e088cc880)"
           d="M 495.870096 184.997426  L 497.357123 74.240794  L 498.84415 113.027124  L 500.331177 141.115615  L 501.818204 158.690181  L 503.305231 169.217578  L 504.792258 175.433253  L 506.279285 179.09979  L 507.766312 181.277954  L 509.253339 182.588023  L 510.740366 183.388674  L 512.227393 183.887036  L 513.71442 184.203318  L 515.201447 184.407924  L 516.688474 184.542585  L 518.175501 184.632368  L 519.662528 184.692529  L 521.149555 184.732452  L 522.636582 184.757927  L 524.123609 184.772478  L 525.610636 184.778141  L 527.097663 184.775904  L 528.58469 184.765945  L 530.071717 184.747735  L 531.558744 184.720035  L 533.045771 184.680818  L 534.532798 184.627111  L 536.019825 184.554753  L 537.506852 184.45807  L 538.993879 184.329449  L 540.480906 184.158816  L 541.967933 183.933011  L 543.45496 183.635078  L 544.941987 183.243507  L 546.429014 182.73149  L 547.916041 182.066289  L 549.403068 181.208833  L 550.890095 180.113725  L 552.377122 178.729799  L 553.864149 177.001427  L 555.351176 174.870655  L 556.838203 172.280246  L 558.325229 169.177527  L 559.812256 165.518849  L 561.299283 161.2743  L 562.78631 156.432228  L 564.273337 151.003042  L 565.760364 145.021802  L 567.247391 138.549185  L 568.734418 131.670578  L 570.221445 124.493274  L 571.708472 117.141959  L 573.195499 109.752869  L 574.682526 102.467167  L 576.169553 95.424112  L 577.65658 88.754629  L 579.143607 82.57575  L 580.630634 76.986303  L 582.117661 72.064042  L 583.604688 67.864258  L 585.091715 64.419767  L 586.578742 61.742082  L 588.065769 59.823496  L 589.552796 58.639786  L 591.039823 58.153267  L 592.52685 58.31594  L 594.013877 59.072528  L 595.500904 60.363275  L 596.987931 62.126378  L 598.474958 64.300038  L 599.961985 66.824088  L 601.449012 69.64123  L 602.936039 72.697915  L 604.423066 75.944902  L 605.910093 79.337567  L 607.39712 82.835983  L 608.884147 86.404858  L 610.371174 90.013341  L 611.858201 93.634753  L 613.345228 97.24626  L 614.832255 100.82853  L 616.319282 104.36537  L 617.806309 107.843383  L 619.293336 111.251628  L 620.780363 114.581306  L 622.26739 117.825482  L 623.754417 120.978815  L 625.241444 124.037336  L 626.728471 126.998239  L 628.215498 129.859703  L 629.702525 132.620737  L 631.189552 135.281046  L 632.676579 137.840916  L 634.163606 140.301113  L 635.650633 142.662804  L 637.13766 144.927481  L 638.624687 147.096904  L 640.111714 149.17305  L 641.598741 151.158065  L 643.085768 153.054236  "
           style="fill:none;stroke:#ff7f0e;stroke-linecap:square;stroke-width:1.5;"
           id="path417" />
      </g>
      <g
         id="line2d_29">
        <path
           clip-path="url(#p7e088cc880)"
           d="M 495.870096 184.997426  L 497.357123 183.790665  L 498.84415 159.009212  L 500.331177 93.283518  L 501.818204 59.203967  L 503.305231 65.360069  L 504.792258 84.801075  L 506.279285 104.221893  L 507.766312 120.223752  L 509.253339 132.670048  L 510.740366 142.175475  L 512.227393 149.39887  L 513.71442 154.88431  L 515.201447 159.048732  L 516.688474 162.20288  L 518.175501 164.575493  L 519.662528 166.333617  L 521.149555 167.598202  L 522.636582 168.455606  L 524.123609 168.965936  L 525.610636 169.168995  L 527.097663 169.088475  L 528.58469 168.734853  L 530.071717 168.107351  L 531.558744 167.195231  L 533.045771 165.978614  L 534.532798 164.429019  L 536.019825 162.509745  L 537.506852 160.176265  L 538.993879 157.376777  L 540.480906 154.053079  L 541.967933 150.14201  L 543.45496 145.577726  L 544.941987 140.295274  L 546.429014 134.236085  L 547.916041 127.356439  L 549.403068 119.640389  L 550.890095 111.119267  L 552.377122 101.900244  L 553.864149 92.205929  L 555.351176 82.424315  L 556.838203 73.161653  L 558.325229 65.278594  L 559.812256 59.873437  L 561.299283 58.16424  L 562.78631 61.23281  L 564.273337 69.650464  L 565.760364 83.107078  L 567.247391 100.253584  L 568.734418 118.938279  L 570.221445 136.815921  L 571.708472 152.050165  L 573.195499 163.745374  L 574.682526 171.933878  L 576.169553 177.238064  L 577.65658 180.46913  L 579.143607 182.353004  L 580.630634 183.423136  L 582.117661 184.025071  L 583.604688 184.364665  L 585.091715 184.558188  L 586.578742 184.669307  L 588.065769 184.732312  L 589.552796 184.765399  L 591.039823 184.777856  L 592.52685 184.773761  L 594.013877 184.753773  L 595.500904 184.715821  L 596.987931 184.655136  L 598.474958 184.563815  L 599.961985 184.43003  L 601.449012 184.236946  L 602.936039 183.961464  L 604.423066 183.572929  L 605.910093 183.032056  L 607.39712 182.290378  L 608.884147 181.290549  L 610.371174 179.967844  L 611.858201 178.253012  L 613.345228 176.076509  L 614.832255 173.373845  L 616.319282 170.091534  L 617.806309 166.192998  L 619.293336 161.663643  L 620.780363 156.514465  L 622.26739 150.783662  L 623.754417 144.536065  L 625.241444 137.860435  L 626.728471 130.864977  L 628.215498 123.67159  L 629.702525 116.409466  L 631.189552 109.208648  L 632.676579 102.194087  L 634.163606 95.4806  L 635.650633 89.168974  L 637.13766 83.343329  L 638.624687 78.069706  L 640.111714 73.395769  L 641.598741 69.351427  L 643.085768 65.950171  "
           style="fill:none;stroke:#2ca02c;stroke-linecap:square;stroke-width:1.5;"
           id="path420" />
      </g>
      <g
         id="line2d_30">
        <path
           clip-path="url(#p7e088cc880)"
           d="M 495.870096 184.997426  L 643.085768 71.226204  "
           style="fill:none;stroke:#d62728;stroke-dasharray:5.55,2.4;stroke-dashoffset:0;stroke-width:1.5;"
           id="path423" />
      </g>
      <g
         id="patch_13">
        <path
           d="M 488.509312 191.340205  L 488.509312 51.799069  "
           style="fill:none;stroke:#000000;stroke-linecap:square;stroke-linejoin:miter;stroke-width:0.8;"
           id="path426" />
      </g>
      <g
         id="patch_14">
        <path
           d="M 650.446551 191.340205  L 650.446551 51.799069  "
           style="fill:none;stroke:#000000;stroke-linecap:square;stroke-linejoin:miter;stroke-width:0.8;"
           id="path429" />
      </g>
      <g
         id="patch_15">
        <path
           d="M 488.509312 191.340205  L 650.446551 191.340205  "
           style="fill:none;stroke:#000000;stroke-linecap:square;stroke-linejoin:miter;stroke-width:0.8;"
           id="path432" />
      </g>
      <g
         id="patch_16">
        <path
           d="M 488.509312 51.799069  L 650.446551 51.799069  "
           style="fill:none;stroke:#000000;stroke-linecap:square;stroke-linejoin:miter;stroke-width:0.8;"
           id="path435" />
      </g>
      <g
         id="text_27">
        <!-- $r=1{,}5$ -->
        <g
           transform="translate(544.064763 45.799069)scale(0.168 -0.168)"
           id="g448">
          <use
             transform="scale(0.996264)"
             xlink:href="#CMMI12-114"
             id="use438" />
          <use
             transform="translate(74.344621 0)scale(0.996264)"
             xlink:href="#CMR17-61"
             id="use440" />
          <use
             transform="translate(173.733418 0)scale(0.996264)"
             xlink:href="#CMR17-49"
             id="use442" />
          <use
             transform="translate(219.423895 0)scale(0.996264)"
             xlink:href="#CMMI12-59"
             id="use444" />
          <use
             transform="translate(246.521072 0)scale(0.996264)"
             xlink:href="#CMR17-53"
             id="use446" />
        </g>
      </g>
    </g>
    <g
       id="legend_1">
      <g
         id="patch_17">
        <path
           d="M 208.36961 22.992028  L 471.94543 22.992028  Q 474.74543 22.992028 474.74543 20.192028  L 474.74543 2.08  Q 474.74543 -0.72 471.94543 -0.72  L 208.36961 -0.72  Q 205.56961 -0.72 205.56961 2.08  L 205.56961 20.192028  Q 205.56961 22.992028 208.36961 22.992028  z "
           style="fill:#ffffff;opacity:0.8;stroke:#cccccc;stroke-linejoin:miter;"
           id="path452" />
      </g>
      <g
         id="line2d_31">
        <path
           d="M 211.16961 9.78  L 239.16961 9.78  "
           style="fill:none;stroke:#1f77b4;stroke-linecap:square;stroke-width:1.5;"
           id="path455" />
      </g>
      <g
         id="line2d_32" />
      <g
         id="text_28">
        <!-- $f$ -->
        <g
           transform="translate(250.36961 14.68)scale(0.14 -0.14)"
           id="g461">
          <use
             transform="scale(0.996264)"
             xlink:href="#CMMI12-102"
             id="use459" />
        </g>
      </g>
      <g
         id="line2d_33">
        <path
           d="M 285.101263 9.78  L 313.101263 9.78  "
           style="fill:none;stroke:#ff7f0e;stroke-linecap:square;stroke-width:1.5;"
           id="path464" />
      </g>
      <g
         id="line2d_34" />
      <g
         id="text_29">
        <!-- $f \circ f$ -->
        <defs
           id="defs469">
          <path
             d="M 44.40625 24.984375  C 44.40625 35.40625 35.5 44 25 44  C 14.203125 44 5.5 35.21875 5.5 24.984375  C 5.5 14.671875 14.203125 5.984375 25 5.984375  C 35.5 5.984375 44.40625 14.5625 44.40625 24.984375  z M 25 10  C 16.296875 10 9.5 16.8125 9.5 24.984375  C 9.5 33.171875 16.40625 40 25 40  C 33.296875 40 40.40625 33.375 40.40625 24.984375  C 40.40625 16.609375 33.296875 10 25 10  z "
             id="CMSY10-14" />
        </defs>
        <g
           transform="translate(324.301263 14.68)scale(0.14 -0.14)"
           id="g477">
          <use
             transform="scale(0.996264)"
             xlink:href="#CMMI12-102"
             id="use471" />
          <use
             transform="translate(80.859512 0)scale(0.996264)"
             xlink:href="#CMSY10-14"
             id="use473" />
          <use
             transform="translate(152.812102 0)scale(0.996264)"
             xlink:href="#CMMI12-102"
             id="use475" />
        </g>
      </g>
      <g
         id="line2d_35">
        <path
           d="M 380.426536 9.78  L 408.426536 9.78  "
           style="fill:none;stroke:#2ca02c;stroke-linecap:square;stroke-width:1.5;"
           id="path480" />
      </g>
      <g
         id="line2d_36" />
      <g
         id="text_30">
        <!-- $f \circ f \circ f$ -->
        <g
           transform="translate(419.626536 14.68)scale(0.14 -0.14)"
           id="g494">
          <use
             transform="scale(0.996264)"
             xlink:href="#CMMI12-102"
             id="use484" />
          <use
             transform="translate(80.859512 0)scale(0.996264)"
             xlink:href="#CMSY10-14"
             id="use486" />
          <use
             transform="translate(152.812102 0)scale(0.996264)"
             xlink:href="#CMMI12-102"
             id="use488" />
          <use
             transform="translate(233.671614 0)scale(0.996264)"
             xlink:href="#CMSY10-14"
             id="use490" />
          <use
             transform="translate(305.624203 0)scale(0.996264)"
             xlink:href="#CMMI12-102"
             id="use492" />
        </g>
      </g>
    </g>
  </g>
  <defs
     id="defs508">
    <clipPath
       id="p29db507be5">
      <rect
         height="139.541136"
         width="161.937239"
         x="49.598278"
         y="51.799069"
         id="rect499" />
    </clipPath>
    <clipPath
       id="pa529923787">
      <rect
         height="139.541136"
         width="161.937239"
         x="269.053795"
         y="51.799069"
         id="rect502" />
    </clipPath>
    <clipPath
       id="p7e088cc880">
      <rect
         height="139.541136"
         width="161.937239"
         x="488.509312"
         y="51.799069"
         id="rect505" />
    </clipPath>
  </defs>
</svg>
